<?xml version="1.0" standalone="no"?>
<!DOCTYPE svg PUBLIC "-//W3C//DTD SVG 20010904//EN"
 "http://www.w3.org/TR/2001/REC-SVG-20010904/DTD/svg10.dtd">
<svg version="1.0" xmlns="http://www.w3.org/2000/svg"
 width="1024.000000pt" height="1024.000000pt" viewBox="0 0 1024.000000 1024.000000"
 preserveAspectRatio="xMidYMid meet">

<g transform="translate(0.000000,1024.000000) scale(0.100000,-0.100000)"
fill="currentColor" stroke="none">
<path d="M7787 8798 c-22 -21 -249 -291 -467 -557 -82 -100 -225 -273 -563
-681 -421 -508 -628 -757 -949 -1143 -370 -445 -377 -455 -326 -491 20 -14
101 -16 676 -16 520 0 653 -3 649 -12 -97 -228 -171 -401 -237 -558 -45 -107
-153 -361 -240 -565 -285 -669 -420 -994 -420 -1013 0 -23 30 -52 54 -52 33 0
55 21 169 157 198 239 1147 1369 1530 1823 161 191 472 555 759 889 103 119
114 144 82 189 l-15 22 -675 0 c-371 0 -674 2 -674 5 0 3 79 200 176 438 378
926 580 1444 591 1512 11 66 -69 100 -120 53z"/>
<path d="M3980 8710 c-420 -15 -831 -50 -1010 -86 -287 -59 -494 -160 -647
-316 -183 -187 -250 -360 -272 -703 -13 -191 -31 -585 -31 -672 l0 -63 -243 0
c-281 0 -314 -6 -382 -75 -72 -72 -75 -90 -75 -484 0 -213 4 -361 11 -384 13
-47 67 -109 117 -133 32 -16 68 -18 277 -18 l240 -1 -3 -65 c-33 -850 -61
-1779 -68 -2285 -6 -377 -5 -427 11 -485 27 -105 81 -197 160 -275 86 -86 174
-131 297 -153 l87 -15 3 -316 c3 -307 4 -317 26 -359 39 -72 96 -120 173 -143
63 -19 88 -21 306 -17 224 3 241 5 291 27 69 31 137 106 157 174 12 40 15 111
15 344 l0 293 768 0 769 0 15 38 c8 20 219 543 467 1162 249 619 455 1131 458
1137 4 10 -329 13 -1598 15 l-1604 3 -57 28 c-65 32 -134 103 -169 174 -23 45
-24 58 -23 213 1 177 22 717 54 1395 39 800 36 783 105 877 46 63 116 113 195
140 l65 22 1737 4 1737 3 54 62 c65 75 705 833 729 863 l17 21 -132 12 c-459
41 -563 43 -1687 46 -608 2 -1211 -1 -1340 -5z m-937 -4555 c196 -51 318 -208
318 -410 0 -128 -39 -214 -140 -308 -88 -81 -147 -102 -286 -102 -102 0 -115
2 -176 31 -155 73 -264 262 -243 418 36 265 278 436 527 371z"/>
<path d="M8014 7903 c-20 -54 -83 -216 -139 -360 l-102 -263 191 0 191 0 -7
137 c-12 246 -43 474 -73 547 -9 20 -17 36 -19 36 -3 0 -21 -44 -42 -97z"/>
<path d="M8145 5624 c-72 -87 -175 -212 -231 -279 l-101 -121 -5 -70 c-6 -83
-32 -146 -84 -204 -43 -47 -139 -100 -182 -100 -26 0 -53 -28 -228 -237 -362
-432 -441 -522 -1284 -1463 -348 -389 -570 -640 -570 -645 0 -4 12 -5 28 -4
15 1 318 1 675 1 l647 -2 0 -287 c0 -236 3 -297 16 -345 22 -76 83 -146 156
-179 50 -23 65 -24 294 -27 265 -4 315 3 392 52 23 14 56 45 72 68 55 76 60
112 60 435 l0 293 43 0 c94 0 240 72 331 163 54 54 106 134 137 212 23 58 24
68 25 365 1 168 -4 521 -11 785 -8 264 -21 761 -30 1105 -9 344 -17 629 -19
634 -1 4 -60 -63 -131 -150z m-632 -1493 c84 -33 167 -114 214 -209 36 -73 38
-80 38 -176 0 -140 -23 -196 -119 -292 -89 -89 -151 -116 -278 -122 -186 -9
-324 72 -402 237 -29 61 -31 74 -31 171 0 97 2 110 32 172 34 72 104 155 160
189 101 63 267 75 386 30z"/>
</g>
</svg>
